<svg width="20" height="22" viewBox="0 0 20 22" fill="none" xmlns="http://www.w3.org/2000/svg">
<path d="M3.21029 17.0029H17.4311C18.5779 17.0029 19.4954 16.1139 19.4954 15.0026C19.4954 14.2247 19.0367 13.5579 18.4632 13.2245L17.6604 12.78C17.4311 12.6689 17.2017 12.4466 17.2017 12.1132L16.2842 6.33451C15.8255 3.55628 13.3025 1.44482 10.4354 1.44482C7.45359 1.44482 5.04523 3.55628 4.58649 6.33451L3.66902 12.1132C3.66902 12.3355 3.43966 12.6689 3.21029 12.78L2.4075 13.2245C1.7194 13.5579 1.37535 14.2247 1.37535 15.0026C1.14598 16.1139 2.06345 17.0029 3.21029 17.0029Z" stroke="#B4B0B0" stroke-width="0.999" stroke-linecap="round"/>
<path d="M12.6143 20.3381C12.0409 21.0042 11.2381 21.4482 10.3206 21.4482C9.40316 21.4482 8.60039 21.0042 8.02698 20.3381" stroke="#B4B0B0" stroke-width="0.999" stroke-linecap="round"/>
</svg>
