<svg width="16" height="16" viewBox="0 0 16 16" fill="none" xmlns="http://www.w3.org/2000/svg">
<path d="M6.97411 2.1637H2.16081C1.79608 2.1637 1.44628 2.30859 1.18838 2.56649C0.930473 2.8244 0.785583 3.17419 0.785583 3.53892V13.1655C0.785583 13.5303 0.930473 13.88 1.18838 14.138C1.44628 14.3959 1.79608 14.5407 2.16081 14.5407H11.7874C12.1521 14.5407 12.5019 14.3959 12.7598 14.138C13.0177 13.88 13.1626 13.5303 13.1626 13.1655V8.35222" stroke="#0074DE" stroke-linecap="round" stroke-linejoin="round"/>
<path d="M12.1311 1.13231C12.4047 0.858757 12.7757 0.705078 13.1626 0.705078C13.5494 0.705078 13.9204 0.858757 14.194 1.13231C14.4675 1.40586 14.6212 1.77687 14.6212 2.16373C14.6212 2.55059 14.4675 2.9216 14.194 3.19515L7.66165 9.72748L4.91119 10.4151L5.59881 7.66464L12.1311 1.13231Z" stroke="#0074DE" stroke-linecap="round" stroke-linejoin="round"/>
</svg>
