<svg width="17" height="16" viewBox="0 0 17 16" fill="none" xmlns="http://www.w3.org/2000/svg">
<path d="M7.56866 2.40584H2.6982C2.32914 2.40584 1.97519 2.55245 1.71422 2.81342C1.45325 3.07438 1.30664 3.42833 1.30664 3.7974V13.5383C1.30664 13.9074 1.45325 14.2613 1.71422 14.5223C1.97519 14.7833 2.32914 14.9299 2.6982 14.9299H12.4391C12.8082 14.9299 13.1621 14.7833 13.4231 14.5223C13.6841 14.2613 13.8307 13.9074 13.8307 13.5383V8.66785" stroke="#919090" stroke-width="1.5" stroke-linecap="round" stroke-linejoin="round"/>
<path d="M12.7869 1.36216C13.0637 1.08537 13.4391 0.929863 13.8306 0.929863C14.222 0.929863 14.5974 1.08537 14.8742 1.36216C15.151 1.63896 15.3065 2.01438 15.3065 2.40583C15.3065 2.79729 15.151 3.1727 14.8742 3.4495L8.26432 10.0594L5.4812 10.7552L6.17698 7.97207L12.7869 1.36216Z" stroke="#919090" stroke-width="1.5" stroke-linecap="round" stroke-linejoin="round"/>
</svg>
