<svg width="245" height="37" viewBox="0 0 245 37" fill="none" xmlns="http://www.w3.org/2000/svg">
<path d="M21.2907 35.6113C30.4111 35.6113 37.8046 28.4106 37.8046 19.5282C37.8046 10.6458 30.4111 3.44516 21.2907 3.44516C12.1704 3.44516 4.77686 10.6458 4.77686 19.5282C4.77686 28.4106 12.1704 35.6113 21.2907 35.6113Z" fill="url(#paint0_linear)"/>
<path d="M19.1367 35.4677C19.5675 35.4677 19.8547 35.4677 20.2855 35.4677C23.4446 35.6113 26.4602 34.8933 29.3322 33.1701C30.1938 32.5957 31.0554 31.8777 31.7733 31.1597C32.4913 30.4417 33.0657 29.8673 33.6401 29.0057C35.0761 27.139 35.9377 24.985 36.3685 22.5438C36.6557 21.1078 36.7993 19.6718 36.5121 18.0922C35.9377 13.2099 33.9273 9.04552 29.763 6.17355C27.8962 5.02476 25.7422 4.16317 23.301 3.73237C21.865 3.44517 20.4291 3.44517 18.9931 3.58877C14.8287 4.16317 11.3823 6.02995 8.65396 9.18912C7.50517 10.6251 6.49998 12.0611 5.92558 13.7843C5.92558 13.7843 5.92558 13.9279 5.78198 13.9279C5.92558 13.6407 5.92558 13.3535 6.06918 13.2099C7.07437 10.1943 8.65396 7.46594 11.0951 5.31196C15.9775 0.860395 22.4394 -0.288395 28.1834 1.57839C32.4913 3.01438 35.6505 5.74275 37.9481 9.61992C39.0969 11.6303 39.8149 13.7843 40.2457 16.0819C40.3893 17.5178 40.5329 18.8102 40.3893 20.2462C40.2457 22.9746 39.5277 25.5594 38.2353 27.857C35.7941 32.3085 32.2041 35.0369 27.0346 36.0421C25.455 36.3293 23.8754 36.3293 22.2958 36.1857C21.5778 36.0421 20.7162 35.8985 19.9983 35.7549C19.5675 35.7549 19.4239 35.6113 19.1367 35.4677Z" fill="#1B154C"/>
<path d="M6.21282 12.9227C5.92562 13.0663 5.63842 13.3535 5.35123 13.4971C5.20763 13.6407 4.92043 13.9279 4.77683 14.0715C4.34604 14.6459 4.34604 15.2202 4.77683 15.7946C5.20763 16.5126 5.78202 16.7998 6.50002 17.087C7.64881 17.3742 8.7976 17.6614 9.94639 17.6614C10.808 17.805 11.6696 17.805 12.5312 17.805C13.2492 17.805 13.9672 17.805 14.6851 17.805C15.6903 17.805 16.6955 17.6614 17.7007 17.6614C19.8547 17.5178 21.8651 17.2306 23.8755 16.6562C25.455 16.2254 27.0346 15.7946 28.6142 15.3638C29.1886 15.2202 29.6194 14.933 30.1938 14.7895C30.0502 14.933 29.9066 14.9331 29.763 15.0766C29.3322 15.3638 28.7578 15.651 28.327 15.9382C26.6038 16.7998 24.8807 17.5178 23.1575 18.0922C21.5779 18.523 20.1419 18.9538 18.5623 19.241C17.5571 19.3846 16.5519 19.5282 15.5467 19.6718C14.2543 19.8154 12.8184 19.959 11.526 19.959C10.6644 19.959 9.65919 19.959 8.7976 19.959C7.36161 19.8154 5.92562 19.6718 4.48963 19.241C3.48444 18.8102 2.62285 18.523 1.90486 17.9486C1.61766 17.805 1.47406 17.5178 1.18686 17.2306C0.899667 16.7998 0.756068 16.2254 1.04327 15.651C1.33046 14.7895 2.04846 14.0715 2.76645 13.6407C3.62804 13.2099 4.48963 12.9227 5.35123 12.9227C5.63842 12.9227 5.92562 12.9227 6.21282 12.9227Z" fill="url(#paint1_linear)"/>
<path d="M7.07441 20.5334C6.64361 20.677 6.21281 20.9642 5.92562 21.395C5.49482 21.8258 5.35122 22.5438 5.78202 22.9746C6.21281 23.549 6.64361 23.8362 7.3616 23.9798C8.2232 24.1234 9.08479 24.267 9.94638 24.4106C10.6644 24.5542 11.3824 24.5542 12.244 24.5542C13.1056 24.5542 13.8235 24.5542 14.6851 24.5542C15.4031 24.5542 16.1211 24.4106 16.8391 24.4106C17.5571 24.267 18.4187 24.267 19.1367 24.1234C20.4291 23.8362 21.7215 23.6926 22.8703 23.2618C24.1627 22.9746 25.3114 22.5438 26.4602 22.2566H26.6038C26.173 22.5438 25.7422 22.831 25.1678 22.9746C24.737 23.2618 24.3063 23.4054 23.8755 23.549C23.0139 23.8362 22.1523 24.267 21.2907 24.5542C19.8547 24.985 18.2751 25.4158 16.6955 25.703C15.6903 25.8466 14.8287 25.9902 13.8235 25.9902C12.6748 26.1338 11.3824 26.1338 10.2336 26.1338C9.37199 26.1338 8.51039 25.9902 7.6488 25.9902C6.78721 25.9902 5.92562 25.703 5.20762 25.5594C4.48963 25.4158 3.77164 25.1286 3.19724 24.5542C2.76645 24.1234 2.47925 23.6926 2.47925 23.1182C2.47925 22.6874 2.62285 22.4002 2.91004 22.113C3.48444 21.2514 4.34603 20.8206 5.35122 20.5334C6.06922 20.5334 6.64361 20.5334 7.07441 20.5334Z" fill="url(#paint2_linear)"/>
<path d="M11.5259 27.4261C11.3823 27.5697 11.0951 27.7133 10.9515 27.8569C10.8079 28.0005 10.5207 28.1441 10.5207 28.4313C10.5207 28.7185 10.5207 28.8621 10.6643 29.1493C10.8079 29.4365 11.2387 29.7237 11.5259 29.8673C12.2439 30.0109 12.9619 30.1545 13.6799 30.2981C14.6851 30.4417 15.6903 30.4417 16.8391 30.4417C18.2751 30.4417 19.711 30.2981 21.147 30.0109C22.4394 29.7237 23.5882 29.4365 24.8806 29.0057C25.1678 28.8621 25.3114 28.8621 25.5986 28.8621C25.3114 29.0057 25.0242 29.1493 24.737 29.2929C23.5882 29.8673 22.4394 30.2981 21.147 30.7289C19.9982 31.0161 18.993 31.3033 17.8443 31.4469C16.4083 31.5905 14.9723 31.7341 13.5363 31.5905C12.3875 31.5905 11.0951 31.4469 9.94633 31.0161C9.65913 30.8725 9.37194 30.7289 9.08474 30.5853C8.36674 30.1545 8.36674 29.4365 8.79754 28.8621C9.22834 28.2877 9.65913 28.0005 10.3771 27.8569C10.6643 27.4261 11.0951 27.4261 11.5259 27.4261C11.5259 27.2825 11.5259 27.2825 11.5259 27.4261Z" fill="url(#paint3_linear)"/>
<path d="M50.7285 11.4867H62.2164L61.9292 14.5023H54.7493L54.4621 16.6562H61.2112L60.924 19.5282H54.1749L53.8877 22.2566H61.3548L60.924 25.2722H49.1489L50.7285 11.4867Z" fill="white"/>
<path d="M62.5035 15.2202H66.5243L67.6731 21.5386L70.4015 15.2202H74.2786L68.8219 25.2722H65.3755L62.5035 15.2202Z" fill="white"/>
<path d="M73.4171 20.2462C73.5607 18.6666 74.2787 17.3742 75.4274 16.5126C76.5762 15.5074 78.0122 15.0766 79.7354 15.0766C81.7458 15.0766 83.1818 15.651 84.0434 16.7998C84.7614 17.805 85.0486 18.9538 84.905 20.2462C84.7614 21.8258 84.0434 23.1182 82.8946 24.1233C81.7458 25.1285 80.3098 25.5593 78.443 25.5593C76.8634 25.5593 75.571 25.1285 74.7094 24.2669C73.7043 23.2618 73.2735 21.9694 73.4171 20.2462ZM77.2942 20.2462C77.1506 21.1078 77.2942 21.8258 77.5814 22.2566C77.8686 22.6874 78.2994 22.831 78.8738 22.831C79.4482 22.831 79.879 22.6874 80.3098 22.2566C80.7406 21.8258 81.0278 21.1078 81.0278 20.2462C81.1714 19.3846 81.0278 18.6666 80.7406 18.2358C80.4534 17.805 80.0226 17.6614 79.4482 17.6614C78.8738 17.6614 78.443 17.9486 78.0122 18.3794C77.725 18.8102 77.4378 19.3846 77.2942 20.2462Z" fill="white"/>
<path d="M87.3462 11.4867H91.2234L90.3618 18.6666L93.6645 15.3639H98.4033L94.3825 18.9538L97.3981 25.5594H93.0901L91.5106 21.5386L89.931 22.9746L89.6438 25.5594H85.7666L87.3462 11.4867Z" fill="white"/>
<path d="M109.173 21.2514H101.419C101.419 21.8258 101.562 22.4002 101.706 22.6874C101.993 23.1182 102.424 23.4054 103.142 23.4054C103.573 23.4054 103.86 23.2618 104.291 23.1182C104.578 22.9746 104.722 22.831 105.009 22.5438L108.742 22.831C108.024 23.8362 107.306 24.5542 106.445 24.985C105.583 25.4158 104.434 25.703 102.855 25.703C101.562 25.703 100.557 25.5594 99.8393 25.1286C99.1213 24.6978 98.5469 24.1234 98.1161 23.4054C97.6853 22.5438 97.5417 21.6822 97.6853 20.5334C97.8289 18.9538 98.5469 17.6614 99.6957 16.6562C100.844 15.651 102.28 15.2202 104.004 15.2202C105.44 15.2202 106.588 15.5074 107.306 15.9382C108.024 16.369 108.599 16.9434 109.03 17.805C109.317 18.6666 109.46 19.6718 109.317 21.1078L109.173 21.2514ZM105.583 19.3846C105.583 18.6666 105.44 18.0922 105.152 17.805C104.865 17.5178 104.434 17.3742 103.86 17.3742C103.286 17.3742 102.711 17.6614 102.28 18.0922C101.993 18.3794 101.85 18.8102 101.706 19.3846H105.583Z" fill="white"/>
<path d="M110.896 11.4867H123.964L123.533 14.9331H119.081L117.789 25.4158H113.481L114.774 14.9331H110.466L110.896 11.4867Z" fill="white"/>
<path d="M134.016 21.2514H126.261C126.261 21.8258 126.405 22.4002 126.549 22.6874C126.836 23.1182 127.267 23.4054 127.985 23.4054C128.415 23.4054 128.703 23.2618 129.133 23.1182C129.421 22.9746 129.564 22.831 129.851 22.5438L133.585 22.831C132.867 23.8362 132.149 24.5542 131.287 24.985C130.426 25.4158 129.277 25.703 127.697 25.703C126.405 25.703 125.4 25.5594 124.682 25.1286C123.964 24.6978 123.389 24.1234 122.959 23.4054C122.528 22.5438 122.384 21.6822 122.528 20.5334C122.671 18.9538 123.389 17.6614 124.538 16.6562C125.687 15.651 127.123 15.2202 128.846 15.2202C130.282 15.2202 131.431 15.5074 132.149 15.9382C132.867 16.369 133.441 16.9434 133.872 17.805C134.159 18.6666 134.303 19.6718 134.159 21.1078L134.016 21.2514ZM130.426 19.3846C130.426 18.6666 130.282 18.0922 129.995 17.805C129.708 17.5178 129.277 17.3742 128.703 17.3742C128.128 17.3742 127.554 17.6614 127.123 18.0922C126.836 18.3794 126.692 18.8102 126.549 19.3846H130.426Z" fill="white"/>
<path d="M142.919 21.395L146.509 21.8258C146.222 22.5438 145.791 23.2618 145.216 23.8362C144.642 24.4105 144.068 24.8413 143.35 25.1285C142.632 25.4157 141.626 25.5593 140.621 25.5593C139.616 25.5593 138.611 25.4157 138.036 25.2721C137.462 25.1285 136.744 24.6977 136.313 24.2669C135.882 23.8362 135.452 23.2618 135.308 22.6874C135.164 22.113 135.021 21.2514 135.164 20.2462C135.308 19.241 135.595 18.3794 136.026 17.6614C136.313 17.087 136.744 16.6562 137.318 16.369C137.893 16.0818 138.324 15.651 138.754 15.5074C139.472 15.2202 140.478 15.0766 141.77 15.0766C143.35 15.0766 144.642 15.3638 145.36 15.9382C146.078 16.5126 146.652 17.3742 146.94 18.523L143.206 18.9538C143.206 18.523 142.919 18.2358 142.632 17.9486C142.344 17.6614 141.914 17.6614 141.483 17.6614C140.908 17.6614 140.334 17.9486 139.903 18.3794C139.472 18.8102 139.185 19.5282 139.042 20.3898C138.898 21.2514 139.042 21.8258 139.472 22.2566C139.76 22.6874 140.334 22.831 140.908 22.831C141.483 22.831 141.914 22.6874 142.201 22.4002C142.344 22.2566 142.632 21.9694 142.919 21.395Z" fill="white"/>
<path d="M148.663 11.4867H152.54L151.966 16.6562C152.54 16.0819 153.114 15.7947 153.689 15.5075C154.263 15.2203 154.838 15.2203 155.556 15.2203C156.561 15.2203 157.422 15.5075 157.853 16.2255C158.428 16.7998 158.571 17.805 158.428 19.0974L157.71 25.5594H153.832L154.55 19.959C154.694 19.3846 154.55 18.8102 154.407 18.6666C154.263 18.3794 153.832 18.2358 153.402 18.2358C152.971 18.2358 152.54 18.3794 152.253 18.8102C151.966 19.241 151.678 19.8154 151.535 20.677L150.96 25.5594H147.083L148.663 11.4867Z" fill="white"/>
<path d="M160.725 15.2203H164.315L164.172 16.7999C164.746 16.0819 165.32 15.6511 166.038 15.3639C166.756 15.0767 167.331 14.9331 168.049 14.9331C169.054 14.9331 169.915 15.2203 170.49 15.9383C171.064 16.5127 171.208 17.5179 171.064 18.8102L170.346 25.2722H166.469L167.187 19.6718C167.331 19.0974 167.187 18.523 167.044 18.3794C166.9 18.0922 166.469 17.9486 166.038 17.9486C165.608 17.9486 165.177 18.0922 164.89 18.523C164.602 18.9538 164.315 19.5282 164.172 20.3898L163.597 25.2722H159.72L160.725 15.2203Z" fill="white"/>
<path d="M172.069 20.2462C172.213 18.6666 172.931 17.3742 174.08 16.5126C175.228 15.651 176.664 15.0766 178.388 15.0766C180.398 15.0766 181.834 15.651 182.696 16.7998C183.414 17.805 183.701 18.9538 183.557 20.2462C183.414 21.8258 182.696 23.1182 181.547 24.1233C180.398 25.1285 178.962 25.5593 177.095 25.5593C175.516 25.5593 174.223 25.1285 173.362 24.2669C172.356 23.2618 171.926 21.9694 172.069 20.2462ZM175.946 20.2462C175.803 21.1078 175.946 21.8258 176.234 22.2566C176.521 22.6874 176.952 22.831 177.526 22.831C178.1 22.831 178.531 22.6874 178.962 22.2566C179.393 21.8258 179.68 21.1078 179.68 20.2462C179.824 19.3846 179.68 18.6666 179.393 18.2358C179.106 17.805 178.675 17.6614 178.1 17.6614C177.526 17.6614 177.095 17.9486 176.664 18.3794C176.234 18.8102 176.09 19.3846 175.946 20.2462Z" fill="white"/>
<path d="M186.142 11.4867H190.019L188.44 25.4158H184.562L186.142 11.4867Z" fill="white"/>
<path d="M190.45 20.2462C190.594 18.6666 191.312 17.3742 192.461 16.5126C193.609 15.651 195.045 15.0766 196.768 15.0766C198.779 15.0766 200.215 15.651 201.076 16.7998C201.794 17.805 202.082 18.9538 201.938 20.2462C201.794 21.8258 201.076 23.1182 199.928 24.1233C198.779 25.1285 197.343 25.5593 195.476 25.5593C193.897 25.5593 192.604 25.1285 191.743 24.2669C190.737 23.2618 190.307 21.9694 190.45 20.2462ZM194.327 20.2462C194.184 21.1078 194.327 21.8258 194.615 22.2566C194.902 22.6874 195.333 22.831 195.907 22.831C196.481 22.831 196.912 22.6874 197.343 22.2566C197.774 21.8258 198.061 21.1078 198.061 20.2462C198.204 19.3846 198.061 18.6666 197.774 18.2358C197.486 17.805 197.056 17.6614 196.481 17.6614C195.907 17.6614 195.476 17.9486 195.045 18.3794C194.758 18.8102 194.471 19.3846 194.327 20.2462Z" fill="white"/>
<path d="M210.985 15.2203H214.575L213.426 24.6978V25.1286C213.282 25.703 213.139 26.421 212.851 26.9954C212.564 27.5698 212.133 28.0006 211.559 28.4314C211.128 28.7186 210.41 29.0057 209.836 29.1493C209.118 29.2929 208.4 29.4365 207.395 29.4365C205.384 29.4365 203.948 29.1493 203.374 28.575C202.656 28.0006 202.369 27.139 202.512 26.1338C202.512 25.9902 202.512 25.8466 202.656 25.5594L206.39 25.9902C206.39 26.2774 206.533 26.5646 206.677 26.7082C206.964 26.8518 207.251 26.9954 207.682 26.9954C208.256 26.9954 208.687 26.8518 208.974 26.5646C209.261 26.2774 209.549 25.703 209.549 24.985L209.692 23.4054C209.261 23.8362 208.831 24.1234 208.4 24.4106C207.825 24.6978 207.107 24.8414 206.39 24.8414C205.097 24.8414 204.092 24.267 203.374 23.1182C202.943 22.2566 202.656 21.2514 202.943 19.8154C203.087 18.2358 203.661 17.0871 204.523 16.2255C205.384 15.3639 206.389 14.9331 207.682 14.9331C208.4 14.9331 209.118 15.0767 209.549 15.3639C209.979 15.6511 210.41 16.0819 210.841 16.6563L210.985 15.2203ZM206.82 20.1026C206.677 20.8206 206.82 21.395 207.107 21.6822C207.395 21.9694 207.825 22.2566 208.256 22.2566C208.687 22.2566 209.118 22.113 209.549 21.6822C209.979 21.2514 210.123 20.8206 210.267 20.1026C210.41 19.3846 210.267 18.8102 209.979 18.3794C209.692 17.9486 209.261 17.805 208.831 17.805C208.4 17.805 207.969 17.9486 207.538 18.3794C207.108 18.6666 206.964 19.241 206.82 20.1026Z" fill="white"/>
<path d="M216.585 15.2203H220.462L219.313 25.2722H215.436L216.585 15.2203ZM217.159 11.4867H221.036L220.749 14.0715H216.872L217.159 11.4867Z" fill="white"/>
<path d="M232.955 21.2514H225.201C225.201 21.8258 225.344 22.4002 225.488 22.6874C225.775 23.1182 226.206 23.4054 226.924 23.4054C227.355 23.4054 227.642 23.2618 228.073 23.1182C228.36 22.9746 228.504 22.831 228.791 22.5438L232.524 22.831C231.806 23.8362 231.088 24.5542 230.227 24.985C229.365 25.4158 228.216 25.703 226.637 25.703C225.344 25.703 224.339 25.5594 223.621 25.1286C222.903 24.6978 222.329 24.1234 221.898 23.4054C221.467 22.5438 221.324 21.6822 221.467 20.5334C221.611 18.9538 222.329 17.6614 223.478 16.6562C224.626 15.651 226.062 15.2202 227.786 15.2202C229.222 15.2202 230.37 15.5074 231.088 15.9382C231.806 16.369 232.381 16.9434 232.812 17.805C233.099 18.6666 233.242 19.6718 233.099 21.1078L232.955 21.2514ZM229.222 19.3846C229.222 18.6666 229.078 18.0922 228.791 17.805C228.504 17.5178 228.073 17.3742 227.498 17.3742C226.924 17.3742 226.35 17.6614 225.919 18.0922C225.632 18.3794 225.488 18.8102 225.344 19.3846H229.222Z" fill="white"/>
<path d="M233.386 22.5438L237.263 22.113C237.407 22.5438 237.55 22.831 237.838 23.1182C238.125 23.2618 238.412 23.4054 238.986 23.4054C239.561 23.4054 239.848 23.2618 240.279 23.1182C240.566 22.9746 240.71 22.6874 240.71 22.5438C240.71 22.2566 240.566 22.113 240.279 21.9694C240.135 21.8258 239.561 21.6822 238.699 21.5386C237.407 21.2514 236.545 21.1078 235.971 20.8206C235.54 20.677 235.109 20.2462 234.822 19.8154C234.535 19.3846 234.391 18.8102 234.535 18.2358C234.678 17.5178 234.822 16.9434 235.253 16.5126C235.684 16.0818 236.258 15.651 236.976 15.5074C237.694 15.2202 238.556 15.2202 239.704 15.2202C240.853 15.2202 241.715 15.3638 242.289 15.5074C242.863 15.651 243.294 15.9382 243.581 16.369C243.869 16.7998 244.156 17.2306 244.299 17.9486L240.566 18.3794C240.566 18.0922 240.422 17.805 240.135 17.6614C239.848 17.5178 239.561 17.3742 239.13 17.3742C238.699 17.3742 238.412 17.5178 238.125 17.6614C237.838 17.805 237.838 17.9486 237.694 18.2358C237.694 18.523 237.838 18.6666 237.981 18.8102C238.268 18.9538 238.699 19.0974 239.561 19.0974C240.853 19.241 241.715 19.3846 242.289 19.6718C242.863 19.959 243.294 20.2462 243.581 20.8206C243.869 21.2514 244.012 21.8258 243.869 22.4002C243.869 22.9746 243.581 23.549 243.151 24.1234C242.72 24.6978 242.146 25.1286 241.284 25.4158C240.422 25.703 239.417 25.8466 238.125 25.8466C236.258 25.8466 234.966 25.5594 234.248 25.1286C233.96 24.267 233.53 23.549 233.386 22.5438Z" fill="white"/>
<defs>
<linearGradient id="paint0_linear" x1="14.9963" y1="34.3567" x2="27.6198" y2="4.61764" gradientUnits="userSpaceOnUse">
<stop stop-color="white"/>
<stop offset="0.0886699" stop-color="white"/>
<stop offset="1" stop-color="#C7C3C3"/>
</linearGradient>
<linearGradient id="paint1_linear" x1="15.3088" y1="12.2601" x2="15.818" y2="19.5403" gradientUnits="userSpaceOnUse">
<stop stop-color="#F8A066"/>
<stop offset="0.2069" stop-color="#F16A21"/>
<stop offset="0.6473" stop-color="#F16C23"/>
<stop offset="0.806" stop-color="#F2722A"/>
<stop offset="0.9186" stop-color="#F37C35"/>
<stop offset="1" stop-color="#F58944"/>
</linearGradient>
<linearGradient id="paint2_linear" x1="13.827" y1="19.0902" x2="15.1886" y2="26.0951" gradientUnits="userSpaceOnUse">
<stop stop-color="#F8A066"/>
<stop offset="0.0479498" stop-color="#F7975A"/>
<stop offset="0.1332" stop-color="#F47F3C"/>
<stop offset="0.197" stop-color="#F16A21"/>
<stop offset="0.6311" stop-color="#F16C23"/>
<stop offset="0.7875" stop-color="#F2712A"/>
<stop offset="0.8985" stop-color="#F37B35"/>
<stop offset="0.9881" stop-color="#F58A46"/>
<stop offset="1" stop-color="#F58C49"/>
</linearGradient>
<linearGradient id="paint3_linear" x1="16.3935" y1="26.22" x2="17.4735" y2="31.3011" gradientUnits="userSpaceOnUse">
<stop stop-color="#F8A066"/>
<stop offset="0.0410102" stop-color="#F79A5F"/>
<stop offset="0.1018" stop-color="#F58B4B"/>
<stop offset="0.1747" stop-color="#F2712A"/>
<stop offset="0.1921" stop-color="#F16A21"/>
<stop offset="0.6289" stop-color="#F16C23"/>
<stop offset="0.7862" stop-color="#F2712A"/>
<stop offset="0.8979" stop-color="#F37B35"/>
<stop offset="0.988" stop-color="#F58A46"/>
<stop offset="1" stop-color="#F58C49"/>
</linearGradient>
</defs>
</svg>
