<svg width="165" height="62" viewBox="0 0 165 62" fill="none" xmlns="http://www.w3.org/2000/svg">
<path d="M83.3047 30.3247C90.944 30.3247 97.1369 24.235 97.1369 16.723C97.1369 9.21106 90.944 3.1214 83.3047 3.1214C75.6654 3.1214 69.4725 9.21106 69.4725 16.723C69.4725 24.235 75.6654 30.3247 83.3047 30.3247Z" fill="url(#paint0_linear)"/>
<path d="M70.4714 11.4206C71.3167 8.80788 72.6999 6.57937 74.6979 4.81192C78.8476 1.0465 84.2267 0.0475105 89.068 1.66126C92.6797 2.89079 95.3693 5.19615 97.2136 8.42366C98.2126 10.1143 98.8274 11.8817 99.1347 13.8028C99.2884 14.9555 99.3653 16.1082 99.2884 17.3377C99.1348 19.6431 98.52 21.7948 97.4442 23.7927C95.3693 27.5582 92.2955 29.9404 88.069 30.632C86.7626 30.8625 85.3794 30.8625 84.0731 30.7088C83.4583 30.632 82.7667 30.4783 82.1519 30.4014C81.9214 30.3246 81.6908 30.2478 81.5372 30.2478C81.8445 30.2478 82.1519 30.3246 82.5361 30.3246C85.2257 30.4014 87.7616 29.7867 90.1438 28.3266C90.9123 27.8655 91.6039 27.2508 92.2187 26.636C92.7566 26.0981 93.3713 25.4833 93.8324 24.8686C95.0619 23.2548 95.8304 21.4105 96.1378 19.4894C96.3683 18.2599 96.4452 17.0303 96.2915 15.8008C95.8304 11.6512 94.1398 8.19312 90.6049 5.73407C88.9143 4.58139 87.07 3.88978 85.072 3.50555C83.8425 3.27502 82.6898 3.27502 81.4603 3.35186C77.9254 3.73609 75.0053 5.34984 72.6999 8.03943C71.7009 9.19211 70.9325 10.4985 70.3946 11.9585C70.3946 12.0354 70.3177 12.0354 70.3177 12.1122C70.3177 11.8817 70.3946 11.6512 70.4714 11.4206Z" fill="#1B154C"/>
<path d="M70.5483 11.1902C70.3178 11.3438 70.0104 11.4975 69.7799 11.7281C69.6262 11.8818 69.4725 12.0355 69.3188 12.1891C69.0114 12.6502 69.0114 13.1113 69.3188 13.5724C69.703 14.1103 70.1641 14.4177 70.7789 14.5714C71.7778 14.8019 72.7 15.0324 73.699 15.1093C74.3906 15.1861 75.159 15.263 75.8507 15.263C76.4654 15.263 77.0802 15.3398 77.6949 15.263C78.5402 15.263 79.3855 15.1861 80.2308 15.1093C81.9983 14.9556 83.7657 14.6482 85.4563 14.264C86.7627 13.9566 88.0691 13.5724 89.4523 13.1881C89.9134 13.0344 90.3744 12.8808 90.8355 12.7271C90.6818 12.8039 90.605 12.8808 90.4513 12.9576C90.0671 13.1881 89.606 13.4187 89.2218 13.6492C87.8385 14.4177 86.3016 14.9556 84.8416 15.4167C83.5352 15.8009 82.3057 16.1083 80.9993 16.3388C80.154 16.4925 79.3087 16.5693 78.4634 16.723C77.3107 16.8767 76.158 16.9536 75.0054 16.8767C74.2369 16.8767 73.4684 16.8767 72.7 16.7999C71.3936 16.7999 70.2409 16.6462 69.0114 16.3388C68.3198 16.1083 67.6282 15.8777 67.0134 15.4167C66.7829 15.263 66.6292 15.0324 66.4755 14.8019C66.1681 14.4177 66.1681 13.9566 66.3218 13.4955C66.6292 12.7271 67.0903 12.1891 67.8587 11.8049C68.5503 11.4207 69.2419 11.267 70.0104 11.1902C70.1641 11.1902 70.3946 11.1902 70.5483 11.1902Z" fill="url(#paint1_linear)"/>
<path d="M71.3936 17.6451C71.0094 17.7988 70.6252 18.0294 70.3946 18.3367C70.0104 18.721 69.9336 19.2589 70.241 19.72C70.5483 20.181 71.0094 20.4116 71.5473 20.5653C72.3158 20.7189 73.0074 20.8726 73.7758 20.9495C74.3906 21.0263 75.0054 21.0263 75.697 21.1032C76.3886 21.1032 77.0802 21.1032 77.695 21.1032C78.3097 21.1032 78.9245 21.0263 79.5392 20.9495C80.2309 20.8726 80.8456 20.7958 81.5372 20.7189C82.6131 20.4884 83.6889 20.3347 84.7647 20.0273C85.7637 19.7968 86.8396 19.4126 87.8385 19.1052C87.8385 19.1052 87.9154 19.1052 87.9922 19.1052C87.608 19.3357 87.2238 19.5663 86.8396 19.72C86.4553 19.9505 86.0711 20.1042 85.6869 20.2579C84.9953 20.5653 84.2268 20.8726 83.5352 21.1032C82.3057 21.4874 80.9993 21.8716 79.6929 22.0253C78.9245 22.179 78.0792 22.2559 77.2339 22.3327C76.2349 22.4095 75.2359 22.4095 74.2369 22.4095C73.4685 22.4095 72.7769 22.3327 72.0084 22.2559C71.3168 22.179 70.6252 22.0253 69.9336 21.8716C69.3188 21.7179 68.7809 21.4874 68.3198 21.1032C67.9356 20.7958 67.7051 20.4116 67.7051 19.9505C67.7051 19.6431 67.8587 19.3357 68.0893 19.1052C68.5504 18.3367 69.3188 18.0294 70.1641 17.7988C70.4715 17.6451 70.9326 17.6451 71.3936 17.6451C71.3936 17.5683 71.3168 17.5683 71.3936 17.6451Z" fill="url(#paint2_linear)"/>
<path d="M75.0821 23.3317C74.9284 23.4085 74.7747 23.5622 74.621 23.6391C74.4674 23.7928 74.3137 23.9464 74.2368 24.177C74.16 24.4075 74.2368 24.5612 74.3137 24.7149C74.4674 25.0223 74.7747 25.2528 75.0821 25.3297C75.6969 25.4834 76.3116 25.5602 76.8496 25.637C77.6949 25.7907 78.617 25.7907 79.4623 25.7139C80.6918 25.637 81.9214 25.5602 83.074 25.2528C84.1499 25.0223 85.1489 24.7917 86.1479 24.4844C86.3784 24.4075 86.5321 24.3307 86.7626 24.3307C86.5321 24.4844 86.3015 24.6381 85.9942 24.7149C84.9952 25.176 83.9962 25.5602 82.9972 25.8676C82.0751 26.0981 81.1529 26.3286 80.1539 26.4823C78.9244 26.636 77.7717 26.7129 76.5422 26.636C75.5432 26.636 74.5442 26.4823 73.5452 26.0981C73.3147 26.0213 73.0841 25.8676 72.8536 25.7139C72.3157 25.3297 72.2388 24.7917 72.5462 24.2538C72.8536 23.7928 73.3147 23.4854 73.8526 23.3317C74.3905 23.4085 74.7747 23.4085 75.0821 23.3317Z" fill="url(#paint3_linear)"/>
<path d="M1.70353 46.7695H11.386L11.0787 49.3054H5.00788L4.77735 51.1497H10.3871L10.2334 53.5319H4.62366L4.31627 55.8373H10.5408L10.2334 58.5269H0.320312L1.70353 46.7695Z" fill="#F8F8F8"/>
<path d="M11.6165 49.997H14.9977L15.9967 55.3762L18.3021 49.997H21.6064L16.9957 58.5268H14.0756L11.6165 49.997Z" fill="#F8F8F8"/>
<path d="M20.838 54.3004C20.9916 52.994 21.5296 51.9182 22.5286 51.0729C23.5275 50.2276 24.7571 49.8433 26.2171 49.8433C27.9077 49.8433 29.1373 50.3044 29.9057 51.3034C30.5205 52.0719 30.751 53.0708 30.5973 54.2235C30.4436 55.5299 29.9057 56.6057 28.9067 57.451C27.9077 58.2963 26.6782 58.6806 25.1413 58.6806C23.7581 58.6806 22.6822 58.2963 21.9138 57.6047C21.0685 56.7594 20.6843 55.6836 20.838 54.3004ZM24.0655 54.3004C23.9886 55.0688 24.0655 55.6067 24.296 55.991C24.5265 56.3752 24.9108 56.5289 25.3718 56.5289C25.8329 56.5289 26.2171 56.3752 26.6014 55.991C26.9087 55.6067 27.1393 55.0688 27.293 54.3004C27.3698 53.5319 27.293 52.994 27.0624 52.6866C26.8319 52.3024 26.4477 52.1487 25.9866 52.1487C25.5255 52.1487 25.0645 52.3024 24.7571 52.6866C24.3728 52.994 24.2192 53.5319 24.0655 54.3004Z" fill="#F8F8F8"/>
<path d="M32.6723 46.7695H35.9766L35.285 52.8403L38.0514 49.997H42.0474L38.6662 52.994L41.2021 58.5269H37.5135L36.2072 55.0688L34.8239 56.2983L34.5934 58.5269H31.289L32.6723 46.7695Z" fill="#F8F8F8"/>
<path d="M51.0382 55.0688H44.5064C44.5064 55.6068 44.5832 55.991 44.8137 56.2215C45.1211 56.6057 45.5054 56.7594 45.9664 56.7594C46.2738 56.7594 46.5812 56.6826 46.8886 56.5289C47.0423 56.4521 47.2728 56.2215 47.5033 55.991L50.654 56.2984C50.0392 57.1437 49.4245 57.7584 48.656 58.1427C47.8876 58.5269 46.8886 58.6806 45.5822 58.6806C44.4295 58.6806 43.5842 58.5269 42.9695 58.2195C42.3547 57.9121 41.8936 57.3742 41.5094 56.6826C41.202 55.991 41.0483 55.1457 41.1252 54.2235C41.2789 52.9172 41.8168 51.8413 42.8158 50.996C43.7379 50.1507 44.9674 49.7665 46.5044 49.7665C47.7339 49.7665 48.656 49.9202 49.3476 50.3044C50.0392 50.6887 50.5003 51.2266 50.7308 51.9182C51.0382 52.6098 51.1151 53.5319 50.9614 54.6078L51.0382 55.0688ZM47.8876 53.5319C47.8876 52.9172 47.8107 52.4561 47.5033 52.1487C47.196 51.8413 46.8886 51.7645 46.5044 51.7645C45.9664 51.7645 45.5822 51.995 45.198 52.3793C44.9674 52.6098 44.8138 52.994 44.6601 53.5319H47.8876Z" fill="#F8F8F8"/>
<path d="M52.4983 46.7695H63.4872L63.1798 49.6896H59.4913L58.4154 58.5269H54.8037L55.8795 49.6896H52.1909L52.4983 46.7695Z" fill="#F8F8F8"/>
<path d="M72.0171 55.0688H65.4852C65.4852 55.6068 65.5621 55.991 65.7926 56.2215C66.1 56.6057 66.4842 56.7594 66.9453 56.7594C67.2527 56.7594 67.56 56.6826 67.8674 56.5289C68.0211 56.4521 68.2516 56.2215 68.4822 55.991L71.6328 56.2984C71.0181 57.1437 70.4033 57.7584 69.6349 58.1427C68.8664 58.5269 67.8674 58.6806 66.561 58.6806C65.4084 58.6806 64.5631 58.5269 63.9483 58.2195C63.3335 57.9121 62.8725 57.3742 62.4882 56.6826C62.1809 55.991 62.0272 55.1457 62.104 54.2235C62.2577 52.9172 62.7956 51.8413 63.7946 50.996C64.7168 50.1507 65.9463 49.7665 67.4832 49.7665C68.7127 49.7665 69.6349 49.9202 70.3265 50.3044C71.0181 50.6887 71.4791 51.2266 71.7097 51.9182C72.0171 52.6098 72.0939 53.5319 71.9402 54.6078L72.0171 55.0688ZM68.8664 53.5319C68.8664 52.9172 68.7896 52.4561 68.4822 52.1487C68.1748 51.8413 67.8674 51.7645 67.4832 51.7645C66.9453 51.7645 66.561 51.995 66.1768 52.3793C65.9463 52.6098 65.7926 52.994 65.6389 53.5319H68.8664Z" fill="#F8F8F8"/>
<path d="M79.3942 55.1457L82.468 55.5299C82.2375 56.1447 81.8533 56.7594 81.469 57.2205C81.0848 57.6816 80.47 58.0658 79.8553 58.2963C79.2405 58.5269 78.4721 58.6806 77.4731 58.6806C76.5509 58.6806 75.8593 58.6037 75.2446 58.45C74.6298 58.2963 74.1687 57.9889 73.7845 57.6047C73.4003 57.2205 73.0929 56.7594 72.9392 56.2984C72.7855 55.8373 72.7087 55.1457 72.7855 54.3004C72.8623 53.4551 73.0929 52.6866 73.4771 52.1487C73.7076 51.6876 74.0919 51.3034 74.4761 50.996C74.8603 50.6886 75.3214 50.3813 75.7056 50.2276C76.3972 49.997 77.1657 49.8433 78.1647 49.8433C79.5479 49.8433 80.5469 50.0739 81.2385 50.6118C81.9301 51.0729 82.3143 51.8413 82.5449 52.7635L79.4711 53.1477C79.3942 52.7635 79.2405 52.5329 79.01 52.3024C78.7794 52.1487 78.4721 51.995 78.011 51.995C77.4731 51.995 77.012 52.2255 76.6278 52.6098C76.2435 52.994 76.013 53.6088 75.9362 54.3772C75.8593 55.0688 75.9362 55.6067 76.2435 55.991C76.5509 56.3752 76.9351 56.5289 77.4731 56.5289C77.9341 56.5289 78.2415 56.452 78.6257 56.2215C79.01 55.991 79.2405 55.6067 79.3942 55.1457Z" fill="#F8F8F8"/>
<path d="M84.3124 46.7695H87.5399L87.002 51.0729C87.4631 50.6118 88.001 50.3044 88.4621 50.0739C88.9231 49.8433 89.4611 49.7665 90.0758 49.7665C90.998 49.7665 91.6127 50.0739 92.0738 50.6118C92.5349 51.1497 92.6886 51.995 92.5349 53.0708L91.9201 58.45H88.6158L89.1537 53.7624C89.2305 53.2245 89.1537 52.8403 89 52.6098C88.8463 52.3792 88.5389 52.3024 88.2315 52.3024C87.8473 52.3024 87.4631 52.4561 87.2325 52.7635C86.9252 53.0708 86.7715 53.6088 86.6946 54.3772L86.2336 58.45H83.006L84.3124 46.7695Z" fill="#F8F8F8"/>
<path d="M94.456 49.997H97.4529L97.2992 51.3803C97.8372 50.8423 98.2982 50.3813 98.8361 50.1507C99.2972 49.9202 99.912 49.7665 100.604 49.7665C101.526 49.7665 102.14 49.997 102.602 50.535C103.063 51.0729 103.216 51.9182 103.063 52.994L102.448 58.3732H99.1435L99.6814 53.6856C99.7583 53.1477 99.6814 52.7635 99.5277 52.5329C99.3741 52.3024 99.0667 52.2256 98.7593 52.2256C98.3751 52.2256 97.9908 52.3793 97.7603 52.6866C97.4529 52.994 97.2992 53.5319 97.2224 54.3004L96.7613 58.3732H93.5338L94.456 49.997Z" fill="#F8F8F8"/>
<path d="M104.062 54.3004C104.215 52.994 104.753 51.9182 105.752 51.0729C106.751 50.2276 107.981 49.8433 109.441 49.8433C111.131 49.8433 112.361 50.3044 113.129 51.3034C113.744 52.0719 113.975 53.0708 113.821 54.2235C113.667 55.5299 113.129 56.6057 112.13 57.451C111.131 58.2963 109.902 58.6806 108.365 58.6806C106.982 58.6806 105.906 58.2963 105.137 57.6047C104.292 56.7594 103.908 55.6836 104.062 54.3004ZM107.289 54.3004C107.212 55.0688 107.289 55.6067 107.52 55.991C107.75 56.3752 108.134 56.5289 108.595 56.5289C109.056 56.5289 109.441 56.3752 109.825 55.991C110.132 55.6067 110.363 55.0688 110.517 54.3004C110.593 53.5319 110.517 52.994 110.286 52.6866C110.055 52.3024 109.671 52.1487 109.21 52.1487C108.749 52.1487 108.288 52.3024 107.981 52.6866C107.596 52.994 107.366 53.5319 107.289 54.3004Z" fill="#F8F8F8"/>
<path d="M115.973 46.7695H119.2L117.817 58.5269H114.589L115.973 46.7695Z" fill="#F8F8F8"/>
<path d="M119.584 54.3004C119.738 52.994 120.276 51.9182 121.275 51.0729C122.274 50.2276 123.503 49.8433 124.963 49.8433C126.654 49.8433 127.884 50.3044 128.652 51.3034C129.267 52.0719 129.497 53.0708 129.344 54.2235C129.19 55.5299 128.652 56.6057 127.653 57.451C126.654 58.2963 125.425 58.6806 123.888 58.6806C122.504 58.6806 121.429 58.2963 120.66 57.6047C119.815 56.7594 119.431 55.6836 119.584 54.3004ZM122.889 54.3004C122.812 55.0688 122.889 55.6067 123.119 55.991C123.35 56.3752 123.734 56.5289 124.195 56.5289C124.656 56.5289 125.04 56.3752 125.425 55.991C125.732 55.6067 125.962 55.0688 126.116 54.3004C126.193 53.5319 126.116 52.994 125.886 52.6866C125.655 52.3024 125.271 52.1487 124.81 52.1487C124.349 52.1487 123.888 52.3024 123.58 52.6866C123.196 52.994 122.965 53.5319 122.889 54.3004Z" fill="#F8F8F8"/>
<path d="M136.951 49.997H140.025L139.103 57.989V58.3732C139.026 58.9111 138.873 59.449 138.565 59.9101C138.258 60.3712 137.95 60.7554 137.489 61.0628C137.105 61.3702 136.567 61.6007 135.952 61.6775C135.338 61.8312 134.723 61.9081 133.954 61.9081C132.264 61.9081 131.111 61.6775 130.496 61.1396C129.882 60.6017 129.651 59.9101 129.805 59.0648C129.805 58.988 129.805 58.8343 129.882 58.6037L133.032 58.988C133.109 59.2953 133.186 59.449 133.34 59.6027C133.57 59.7564 133.878 59.8333 134.185 59.8333C134.646 59.8333 135.03 59.6796 135.261 59.449C135.491 59.2185 135.722 58.7574 135.799 58.1427L135.952 56.8363C135.568 57.2205 135.261 57.5279 134.877 57.6816C134.339 57.9121 133.801 58.0658 133.186 58.0658C132.033 58.0658 131.188 57.6047 130.573 56.6058C130.189 55.9141 130.035 54.992 130.189 53.8393C130.343 52.5329 130.804 51.534 131.495 50.8423C132.187 50.1507 133.109 49.7665 134.108 49.7665C134.8 49.7665 135.338 49.8434 135.722 50.0739C136.106 50.3044 136.49 50.6887 136.798 51.1497L136.951 49.997ZM133.416 54.1467C133.34 54.7615 133.416 55.2225 133.647 55.5299C133.878 55.8373 134.185 55.991 134.646 55.991C135.03 55.991 135.414 55.8373 135.722 55.5299C136.029 55.2225 136.26 54.7615 136.26 54.1467C136.337 53.5319 136.26 53.0709 136.029 52.7635C135.799 52.4561 135.414 52.3024 135.03 52.3024C134.646 52.3024 134.262 52.4561 133.954 52.7635C133.647 52.9172 133.493 53.4551 133.416 54.1467Z" fill="#F8F8F8"/>
<path d="M141.639 49.997H144.867L143.868 58.5269H140.64L141.639 49.997ZM142.023 46.7695H145.251L145.02 48.998H141.793L142.023 46.7695Z" fill="#F8F8F8"/>
<path d="M155.394 55.0688H148.862C148.862 55.6068 148.939 55.991 149.17 56.2215C149.477 56.6057 149.861 56.7594 150.323 56.7594C150.63 56.7594 150.937 56.6826 151.245 56.5289C151.398 56.4521 151.629 56.2215 151.859 55.991L155.01 56.2984C154.395 57.1437 153.781 57.7584 153.012 58.1427C152.244 58.5269 151.245 58.6806 149.938 58.6806C148.786 58.6806 147.94 58.5269 147.326 58.2195C146.711 57.9121 146.25 57.3742 145.865 56.6826C145.558 55.991 145.404 55.1457 145.481 54.2235C145.635 52.9172 146.173 51.8413 147.172 50.996C148.094 50.1507 149.324 49.7665 150.86 49.7665C152.09 49.7665 153.012 49.9202 153.704 50.3044C154.395 50.6887 154.856 51.2266 155.087 51.9182C155.394 52.6098 155.471 53.5319 155.317 54.6078L155.394 55.0688ZM152.321 53.5319C152.321 52.9172 152.244 52.4561 151.936 52.1487C151.629 51.8413 151.322 51.7645 150.937 51.7645C150.399 51.7645 150.015 51.995 149.631 52.3793C149.4 52.6098 149.247 52.994 149.093 53.5319H152.321Z" fill="#F8F8F8"/>
<path d="M155.779 56.1447L159.083 55.8373C159.16 56.2215 159.313 56.5289 159.544 56.6826C159.775 56.8363 160.082 56.9131 160.466 56.9131C160.927 56.9131 161.235 56.8363 161.542 56.6057C161.773 56.4521 161.849 56.2984 161.849 56.0678C161.849 55.8373 161.773 55.6836 161.542 55.5299C161.388 55.4531 160.927 55.2994 160.159 55.2225C159.083 54.992 158.314 54.8383 157.853 54.6846C157.392 54.5309 157.085 54.2235 156.854 53.8393C156.624 53.4551 156.47 52.994 156.547 52.4561C156.624 51.9182 156.854 51.3803 157.239 50.996C157.623 50.6118 158.084 50.3044 158.699 50.0739C159.313 49.8434 160.082 49.7665 161.004 49.7665C162.003 49.7665 162.772 49.8434 163.233 49.997C163.694 50.1507 164.078 50.3813 164.385 50.6887C164.693 50.996 164.923 51.4571 165 51.995L161.849 52.3024C161.773 51.995 161.696 51.8413 161.542 51.6876C161.311 51.534 161.004 51.4571 160.62 51.4571C160.236 51.4571 160.005 51.534 159.775 51.6876C159.621 51.8413 159.467 51.995 159.467 52.1487C159.467 52.3793 159.544 52.5329 159.698 52.6098C159.928 52.6866 160.389 52.8403 161.081 52.9172C162.157 53.0709 162.925 53.2246 163.463 53.4551C164.001 53.6856 164.308 53.993 164.539 54.3772C164.77 54.7615 164.846 55.2225 164.769 55.6836C164.693 56.1447 164.539 56.6826 164.155 57.1437C163.771 57.6047 163.309 57.989 162.618 58.2195C161.926 58.45 161.081 58.6037 159.928 58.6037C158.391 58.6037 157.315 58.3732 156.701 57.9121C156.24 57.6047 155.855 56.99 155.779 56.1447Z" fill="#F8F8F8"/>
<defs>
<linearGradient id="paint0_linear" x1="77.9809" y1="29.2504" x2="88.6307" y2="4.16112" gradientUnits="userSpaceOnUse">
<stop stop-color="white"/>
<stop offset="0.0886699" stop-color="white"/>
<stop offset="1" stop-color="#C7C3C3"/>
</linearGradient>
<linearGradient id="paint1_linear" x1="78.3145" y1="10.6265" x2="78.744" y2="16.7677" gradientUnits="userSpaceOnUse">
<stop stop-color="#F8A066"/>
<stop offset="0.2069" stop-color="#F16A22"/>
<stop offset="0.6499" stop-color="#F16C24"/>
<stop offset="0.8095" stop-color="#F2722B"/>
<stop offset="0.9228" stop-color="#F37D36"/>
<stop offset="1" stop-color="#F58944"/>
</linearGradient>
<linearGradient id="paint2_linear" x1="77.1443" y1="16.369" x2="78.2929" y2="22.2781" gradientUnits="userSpaceOnUse">
<stop stop-color="#F8A066"/>
<stop offset="0.0485036" stop-color="#F7975B"/>
<stop offset="0.1347" stop-color="#F47F3C"/>
<stop offset="0.197" stop-color="#F16A22"/>
<stop offset="0.6334" stop-color="#F16C24"/>
<stop offset="0.7905" stop-color="#F2722B"/>
<stop offset="0.9022" stop-color="#F37C36"/>
<stop offset="0.9922" stop-color="#F58A47"/>
<stop offset="1" stop-color="#F58C49"/>
</linearGradient>
<linearGradient id="paint3_linear" x1="79.2296" y1="22.3984" x2="80.1407" y2="26.6847" gradientUnits="userSpaceOnUse">
<stop stop-color="#F8A066"/>
<stop offset="0.0414219" stop-color="#F79A5F"/>
<stop offset="0.1029" stop-color="#F58A4B"/>
<stop offset="0.1764" stop-color="#F2702A"/>
<stop offset="0.1921" stop-color="#F16A22"/>
<stop offset="0.6311" stop-color="#F16C24"/>
<stop offset="0.7892" stop-color="#F2722B"/>
<stop offset="0.9016" stop-color="#F37C36"/>
<stop offset="0.9922" stop-color="#F58A47"/>
<stop offset="1" stop-color="#F58C49"/>
</linearGradient>
</defs>
</svg>
