<?xml version="1.0" encoding="utf-8"?>
<!-- Generator: Adobe Illustrator 24.2.1, SVG Export Plug-In . SVG Version: 6.00 Build 0)  -->
<svg version="1.1" id="Layer_1" xmlns="http://www.w3.org/2000/svg" xmlns:xlink="http://www.w3.org/1999/xlink" x="0px" y="0px"
	 viewBox="0 0 13 13" style="enable-background:new 0 0 13 13;" xml:space="preserve">
<style type="text/css">
	.st0{fill:none;stroke:#494949;stroke-miterlimit:10;}
	.st1{fill:none;stroke:#494949;}
</style>
<path class="st0" d="M1.3,12l0.6-3.4l6.7-7.3c0.2-0.2,0.4-0.4,0.6-0.5C9.5,0.7,9.8,0.7,10,0.7c0.3,0,0.5,0,0.7,0.1
	C11,0.9,11.2,1,11.4,1.2c0.2,0.2,0.3,0.4,0.4,0.7C11.9,2.1,12,2.4,12,2.7c0,0.3-0.1,0.5-0.2,0.8c-0.1,0.2-0.3,0.5-0.4,0.6l-6.7,7.3
	L1.3,12z"/>
<line class="st1" x1="7.7" y1="2.5" x2="10.7" y2="5.2"/>
</svg>
