<?xml version="1.0" encoding="utf-8"?>
<!-- Generator: Adobe Illustrator 25.2.1, SVG Export Plug-In . SVG Version: 6.00 Build 0)  -->
<svg version="1.1" id="Layer_1" xmlns="http://www.w3.org/2000/svg" xmlns:xlink="http://www.w3.org/1999/xlink" x="0px" y="0px"
	 viewBox="0 0 57 50" style="enable-background:new 0 0 57 50;" xml:space="preserve">
<style type="text/css">
	.st0{fill:none;stroke:#0066FF;stroke-width:1.5;stroke-miterlimit:10;}
	.st1{fill:none;stroke:#0066FF;stroke-width:1.5;stroke-linecap:round;stroke-miterlimit:10;}
	.st2{fill:#C8DEFF;stroke:#0066FF;stroke-width:1.1;stroke-miterlimit:10;}
	.st3{fill:none;stroke:#0066FF;stroke-width:1.5;stroke-linecap:round;stroke-linejoin:round;}
	.st4{fill:#0066FF;}
</style>
<g>
	<path class="st0" d="M29.9,40.9H8.2c-1.5,0-2.8-1.3-2.8-2.8V15.8c0-1.5,1.3-2.8,2.8-2.8h21.3c0.9,0,1.6-0.5,2.1-1.2L34,6.5
		c0.5-0.8,1.4-1.4,2.4-1.4h9.8c1.5,0,2.8,1.3,2.8,2.8v15.9"/>
	<path class="st0" d="M5.5,15.8v-5.4c0-1.5,1.3-2.8,2.8-2.8h25.2"/>
	<path class="st1" d="M10.4,18.2h8.4"/>
	<path class="st1" d="M10.4,21.6h8.4"/>
	<path class="st2" d="M41.7,44.9c5.7,0,10.3-4.6,10.3-10.3c0-5.7-4.6-10.3-10.3-10.3s-10.3,4.6-10.3,10.3
		C31.4,40.3,36,44.9,41.7,44.9z"/>
</g>
<g>
	<g>
		<line class="st3" x1="37.2" y1="34.4" x2="45" y2="34.4"/>
		<g>
			<polygon class="st4" points="41.5,38.7 40.8,38 44.6,34.4 40.8,30.9 41.5,30.2 46.1,34.4 			"/>
		</g>
	</g>
</g>
</svg>
