<svg width="57" height="50" viewBox="0 0 57 50" fill="none" xmlns="http://www.w3.org/2000/svg">
<g filter="url(#filter0_d)">
<path d="M29.9096 40.777H8.24942C6.71562 40.777 5.4624 39.5267 5.4624 37.9965V15.6592C5.4624 14.129 6.71562 12.8787 8.24942 12.8787H29.5074C30.3585 12.8787 31.1441 12.4215 31.565 11.6751L34.0247 6.42198C34.5016 5.5729 35.4088 5.04106 36.3908 5.04106H46.1734C47.6979 5.04106 48.9511 6.29135 48.9511 7.82156V23.7674" stroke="#7650C7" stroke-width="1.5" stroke-miterlimit="10"/>
<path d="M5.4624 15.6872V10.3128C5.4624 8.78259 6.71562 7.5323 8.24942 7.5323H33.4074" stroke="#7650C7" stroke-width="1.5" stroke-miterlimit="10"/>
<path d="M10.3538 18.0758H18.7148" stroke="#7650C7" stroke-width="1.5" stroke-miterlimit="10" stroke-linecap="round"/>
<path d="M10.3538 21.4535H18.7148" stroke="#7650C7" stroke-width="1.5" stroke-miterlimit="10" stroke-linecap="round"/>
<path d="M32.5657 39.8346L34.8757 38.7056C34.38 37.9405 34.0059 37.1008 33.7815 36.1957L31.4247 36.8302C31.247 36.0651 31.1534 35.2627 31.1534 34.4322C31.1534 33.5458 31.2657 32.6874 31.4621 31.8663L33.6786 32.6594C33.8563 31.7171 34.1836 30.8213 34.6512 30.0189L32.6685 28.9739C33.5757 27.481 34.8383 26.2214 36.344 25.3256L37.1483 27.3224C38.0275 26.7159 39.0282 26.268 40.1037 26.0348L39.1965 24.15C40.0289 23.9447 40.8893 23.8327 41.7778 23.8327C42.6756 23.8327 43.5454 23.9447 44.3777 24.15L43.4144 25.9788C44.5367 26.184 45.5748 26.6132 46.5007 27.2104L47.2957 25.363C48.6986 26.212 49.8957 27.3784 50.7748 28.7686L48.8014 29.4497C49.4561 30.3921 49.9144 31.4838 50.1388 32.6594L52.1496 32.0809C52.3179 32.8367 52.4115 33.6205 52.4115 34.4322C52.4115 35.1134 52.346 35.7852 52.2244 36.429L50.1014 35.8691C49.8582 37.0541 49.3626 38.1551 48.6705 39.0975L50.7748 40.0865C49.9518 41.3835 48.8575 42.4938 47.5669 43.3336L46.3043 41.2902C45.472 41.8034 44.5461 42.1766 43.5547 42.3725L44.1346 44.7798C43.377 44.9478 42.5914 45.0411 41.7871 45.0411C40.908 45.0411 40.0569 44.9384 39.2433 44.7331L40.1692 42.3539C39.1591 42.1393 38.2239 41.7474 37.3915 41.2062L36.0822 43.3802C34.6512 42.4658 33.4448 41.2155 32.5937 39.7506" fill="#E1D4FC"/>
<path d="M32.5657 39.8346L34.8757 38.7056C34.38 37.9405 34.0059 37.1008 33.7815 36.1957L31.4247 36.8302C31.247 36.0651 31.1534 35.2627 31.1534 34.4322C31.1534 33.5458 31.2657 32.6874 31.4621 31.8663L33.6786 32.6594C33.8563 31.7171 34.1836 30.8213 34.6512 30.0189L32.6685 28.9739C33.5757 27.481 34.8383 26.2214 36.344 25.3256L37.1483 27.3224C38.0275 26.7159 39.0282 26.268 40.1037 26.0348L39.1965 24.15C40.0289 23.9447 40.8893 23.8327 41.7778 23.8327C42.6756 23.8327 43.5454 23.9447 44.3777 24.15L43.4144 25.9788C44.5367 26.184 45.5748 26.6132 46.5007 27.2104L47.2957 25.363C48.6986 26.212 49.8957 27.3784 50.7748 28.7686L48.8014 29.4497C49.4561 30.3921 49.9144 31.4838 50.1388 32.6594L52.1496 32.0809C52.3179 32.8367 52.4115 33.6205 52.4115 34.4322C52.4115 35.1134 52.346 35.7852 52.2244 36.429L50.1014 35.8691C49.8582 37.0541 49.3626 38.1551 48.6705 39.0975L50.7748 40.0865C49.9518 41.3835 48.8575 42.4938 47.5669 43.3336L46.3043 41.2902C45.472 41.8034 44.5461 42.1766 43.5547 42.3725L44.1346 44.7798C43.377 44.9478 42.5914 45.0411 41.7871 45.0411C40.908 45.0411 40.0569 44.9384 39.2433 44.7331L40.1692 42.3539C39.1591 42.1393 38.2239 41.7474 37.3915 41.2062L36.0822 43.3802C34.6512 42.4658 33.4448 41.2155 32.5937 39.7506" stroke="#7650C7" stroke-miterlimit="10"/>
<path d="M41.703 38.9109C44.141 38.9109 46.1174 36.9392 46.1174 34.5069C46.1174 32.0746 44.141 30.1029 41.703 30.1029C39.2651 30.1029 37.2887 32.0746 37.2887 34.5069C37.2887 36.9392 39.2651 38.9109 41.703 38.9109Z" fill="#ECE3FF" stroke="#7650C7" stroke-width="0.5" stroke-miterlimit="10"/>
</g>
<defs>
<filter id="filter0_d" x="0.712402" y="0.291061" width="56.1991" height="49.25" filterUnits="userSpaceOnUse" color-interpolation-filters="sRGB">
<feFlood flood-opacity="0" result="BackgroundImageFix"/>
<feColorMatrix in="SourceAlpha" type="matrix" values="0 0 0 0 0 0 0 0 0 0 0 0 0 0 0 0 0 0 127 0"/>
<feOffset/>
<feGaussianBlur stdDeviation="2"/>
<feColorMatrix type="matrix" values="0 0 0 0 0.462745 0 0 0 0 0.313726 0 0 0 0 0.780392 0 0 0 0.25 0"/>
<feBlend mode="normal" in2="BackgroundImageFix" result="effect1_dropShadow"/>
<feBlend mode="normal" in="SourceGraphic" in2="effect1_dropShadow" result="shape"/>
</filter>
</defs>
</svg>
