<svg width="16" height="16" viewBox="0 0 16 16" fill="none" xmlns="http://www.w3.org/2000/svg">
<path fill-rule="evenodd" clip-rule="evenodd" d="M7.95317 15.421C12.0438 15.421 15.36 12.1049 15.36 8.0142C15.36 3.92355 12.0438 0.607422 7.95317 0.607422C3.86252 0.607422 0.546387 3.92355 0.546387 8.0142C0.546387 12.1049 3.86252 15.421 7.95317 15.421ZM12.5539 6.33362C12.8518 6.04591 12.8602 5.57111 12.5725 5.27312C12.2847 4.97514 11.8099 4.96681 11.512 5.25452L6.65727 9.9418L4.81314 8.13383C4.51736 7.84386 4.04251 7.84856 3.75253 8.14434C3.46255 8.44011 3.46725 8.91497 3.76303 9.20494L6.12822 11.5238C6.41827 11.8081 6.882 11.8099 7.17422 11.5278L12.5539 6.33362Z" fill="white"/>
</svg>
