<svg width="16" height="15" viewBox="0 0 16 15" fill="none" xmlns="http://www.w3.org/2000/svg">
<path fill-rule="evenodd" clip-rule="evenodd" d="M8.28007 14.9052C12.3707 14.9052 15.6869 11.5891 15.6869 7.49846C15.6869 3.4078 12.3707 0.0916748 8.28007 0.0916748C4.18942 0.0916748 0.873291 3.4078 0.873291 7.49846C0.873291 11.5891 4.18942 14.9052 8.28007 14.9052ZM12.8808 5.81787C13.1787 5.53016 13.1871 5.05536 12.8994 4.75737C12.6117 4.45939 12.1369 4.45106 11.8389 4.73877L6.98417 9.42606L5.14004 7.61809C4.84427 7.32811 4.36941 7.33281 4.07944 7.62859C3.78946 7.92437 3.79416 8.39922 4.08994 8.6892L6.45512 11.008C6.74518 11.2924 7.2089 11.2941 7.50112 11.012L12.8808 5.81787Z" fill="white"/>
</svg>
