<svg width="34" height="33" viewBox="0 0 34 33" fill="none" xmlns="http://www.w3.org/2000/svg">
<path d="M23.0489 23.271V21.7669C23.0489 20.9691 22.7378 20.204 22.1841 19.6399C21.6304 19.0757 20.8795 18.7588 20.0964 18.7588H14.1916C13.4085 18.7588 12.6576 19.0757 12.1039 19.6399C11.5502 20.204 11.2391 20.9691 11.2391 21.7669V23.271" stroke="#B4B0B0" stroke-width="0.8" stroke-linecap="round" stroke-linejoin="round"/>
<path d="M17.144 15.7507C18.7746 15.7507 20.0964 14.4039 20.0964 12.7425C20.0964 11.0812 18.7746 9.73438 17.144 9.73438C15.5134 9.73438 14.1915 11.0812 14.1915 12.7425C14.1915 14.4039 15.5134 15.7507 17.144 15.7507Z" stroke="#B4B0B0" stroke-width="0.8" stroke-linecap="round" stroke-linejoin="round"/>
<circle cx="16.8365" cy="16.5" r="16" stroke="#B4B0B0"/>
</svg>
