<svg width="34" height="33" viewBox="0 0 34 33" fill="none" xmlns="http://www.w3.org/2000/svg">
<path d="M23.2126 23.271V21.7669C23.2126 20.9691 22.9015 20.204 22.3478 19.6399C21.7941 19.0757 21.0432 18.7588 20.2601 18.7588H14.3553C13.5722 18.7588 12.8213 19.0757 12.2676 19.6399C11.7139 20.204 11.4028 20.9691 11.4028 21.7669V23.271" stroke="#B4B0B0" stroke-width="0.8" stroke-linecap="round" stroke-linejoin="round"/>
<path d="M17.3074 15.7507C18.938 15.7507 20.2599 14.4039 20.2599 12.7425C20.2599 11.0812 18.938 9.73438 17.3074 9.73438C15.6768 9.73438 14.355 11.0812 14.355 12.7425C14.355 14.4039 15.6768 15.7507 17.3074 15.7507Z" stroke="#B4B0B0" stroke-width="0.8" stroke-linecap="round" stroke-linejoin="round"/>
<circle cx="17" cy="16.5" r="16" stroke="#B4B0B0"/>
</svg>
