<svg width="14" height="16" viewBox="0 0 14 16" fill="none" xmlns="http://www.w3.org/2000/svg">
<g clip-path="url(#clip0_7075_583)">
<path d="M12.5652 0.289795H1.43478C0.802458 0.289795 0.289856 0.802397 0.289856 1.43472V10.4275C0.289856 11.0598 0.802458 11.5724 1.43478 11.5724H12.5652C13.1975 11.5724 13.7101 11.0598 13.7101 10.4275V1.43472C13.7101 0.802397 13.1975 0.289795 12.5652 0.289795Z" stroke="#57565C" stroke-width="0.8" stroke-linecap="round" stroke-linejoin="round"/>
<path d="M8.50724 13.8188V11.384H5.49275V13.8188H2.97101V15.3985H11.029V13.8188H8.50724Z" fill="#57565C"/>
<path d="M10.2888 2.94702H3.71118C3.43504 2.94702 3.21118 3.17088 3.21118 3.44702V7.92996C3.21118 8.2061 3.43504 8.42996 3.71118 8.42996H10.2888C10.5649 8.42996 10.7888 8.2061 10.7888 7.92996V3.44702C10.7888 3.17088 10.5649 2.94702 10.2888 2.94702Z" stroke="#57565C" stroke-width="0.8" stroke-miterlimit="10"/>
</g>
<defs>
<clipPath id="clip0_7075_583">
<rect width="14" height="15.3986" fill="white"/>
</clipPath>
</defs>
</svg>
