<svg width="11" height="12" viewBox="0 0 11 12" fill="none" xmlns="http://www.w3.org/2000/svg">
<path d="M0.633453 3.30225H1.63345H9.63345" fill="#C4C4C4"/>
<path d="M0.633453 3.30225H1.63345H9.63345" stroke="#F16A21" stroke-linecap="round" stroke-linejoin="round"/>
<path d="M8.63345 3.30225V10.3022C8.63345 10.5675 8.5281 10.8218 8.34056 11.0094C8.15302 11.1969 7.89867 11.3022 7.63345 11.3022H2.63345C2.36824 11.3022 2.11388 11.1969 1.92635 11.0094C1.73881 10.8218 1.63345 10.5675 1.63345 10.3022V3.30225H8.63345ZM3.13345 3.30225V2.30225C3.13345 2.03703 3.23881 1.78268 3.42635 1.59514C3.61388 1.4076 3.86824 1.30225 4.13345 1.30225H6.13345C6.39867 1.30225 6.65302 1.4076 6.84056 1.59514C7.0281 1.78268 7.13345 2.03703 7.13345 2.30225V3.30225" fill="#FFE9DA"/>
<path d="M3.13345 3.30225V2.30225C3.13345 2.03703 3.23881 1.78268 3.42635 1.59514C3.61388 1.4076 3.86824 1.30225 4.13345 1.30225H6.13345C6.39867 1.30225 6.65302 1.4076 6.84056 1.59514C7.0281 1.78268 7.13345 2.03703 7.13345 2.30225V3.30225M8.63345 3.30225V10.3022C8.63345 10.5675 8.5281 10.8218 8.34056 11.0094C8.15302 11.1969 7.89867 11.3022 7.63345 11.3022H2.63345C2.36824 11.3022 2.11388 11.1969 1.92635 11.0094C1.73881 10.8218 1.63345 10.5675 1.63345 10.3022V3.30225H8.63345Z" stroke="#F16A21" stroke-linecap="round" stroke-linejoin="round"/>
</svg>
