<svg width="13" height="16" viewBox="0 0 13 16" fill="none" xmlns="http://www.w3.org/2000/svg">
<path d="M6.09302 7.70703V13.5787" stroke="#239EC5" stroke-linecap="round" stroke-linejoin="round"/>
<path d="M8.76785 12.1598L6.15822 14.5502L3.54858 12.1598" stroke="#239EC5" stroke-linecap="round" stroke-linejoin="round"/>
<path d="M10.8883 9.1057C11.3761 8.83973 11.7616 8.41886 11.9837 7.90951C12.2058 7.40017 12.252 6.83136 12.1149 6.29286C11.9778 5.75437 11.6653 5.27685 11.2268 4.93567C10.7882 4.59449 10.2484 4.40909 9.69277 4.40873H9.06251C8.9111 3.8231 8.6289 3.27942 8.23713 2.81855C7.84536 2.35769 7.35421 1.99163 6.8006 1.74791C6.247 1.50419 5.64534 1.38913 5.04087 1.41141C4.4364 1.43368 3.84484 1.59269 3.31067 1.87649C2.7765 2.16029 2.31362 2.5615 1.95682 3.04994C1.60003 3.53839 1.35861 4.10136 1.25071 4.69654C1.14281 5.29172 1.17124 5.90362 1.33386 6.48623C1.49648 7.06884 1.78906 7.607 2.18961 8.06026" stroke="#239EC5" stroke-linecap="round" stroke-linejoin="round"/>
</svg>
