<svg width="30" height="25" viewBox="0 0 30 25" fill="none" xmlns="http://www.w3.org/2000/svg">
<path d="M14.7563 12.5667V24.1917" stroke="#929292" stroke-opacity="0.5" stroke-linecap="round" stroke-linejoin="round"/>
<path d="M19.9231 16.7333L14.7564 11.5667L9.58972 16.7333" stroke="#929292" stroke-opacity="0.5" stroke-linecap="round" stroke-linejoin="round"/>
<path d="M25.5934 20.8204C26.8533 20.1336 27.8485 19.0468 28.422 17.7315C28.9956 16.4163 29.1148 14.9475 28.7609 13.557C28.4069 12.1664 27.6 10.9334 26.4675 10.0524C25.3349 9.17135 23.9412 8.6926 22.5064 8.69165H20.8789C20.4879 7.17942 19.7592 5.7755 18.7475 4.58543C17.7359 3.39537 16.4676 2.45012 15.0381 1.82077C13.6085 1.19141 12.0549 0.894322 10.494 0.951831C8.93312 1.00934 7.40557 1.41995 6.02621 2.1528C4.64685 2.88565 3.45158 3.92166 2.53024 5.18294C1.60891 6.44423 0.985499 7.89797 0.706873 9.43487C0.428247 10.9718 0.50166 12.5518 0.921591 14.0563C1.34152 15.5607 2.09704 16.9504 3.13136 18.1208" stroke="#929292" stroke-opacity="0.5" stroke-linecap="round" stroke-linejoin="round"/>
</svg>
