<svg width="14" height="19" viewBox="0 0 14 19" fill="none" xmlns="http://www.w3.org/2000/svg">
<g clip-path="url(#clip0_7073_578)">
<path d="M10.8769 16.132H13.6669V11.9678C13.6669 11.0843 13.3159 10.237 12.6912 9.6122C12.0664 8.98746 11.2191 8.63647 10.3355 8.63647H3.67284C2.78931 8.63647 1.94197 8.98746 1.31722 9.6122C0.692472 10.237 0.341492 11.0843 0.341492 11.9678V16.132H3.19812" stroke="#57565C" stroke-width="0.8" stroke-linecap="round" stroke-linejoin="round"/>
<path d="M6.99584 6.99595C8.83569 6.99595 10.3272 5.50446 10.3272 3.6646C10.3272 1.82475 8.83569 0.333252 6.99584 0.333252C5.15599 0.333252 3.66449 1.82475 3.66449 3.6646C3.66449 5.50446 5.15599 6.99595 6.99584 6.99595Z" stroke="#57565C" stroke-width="0.8" stroke-linecap="round" stroke-linejoin="round"/>
<path d="M6.92503 15.8187C7.483 15.8187 7.93532 15.3664 7.93532 14.8084C7.93532 14.2504 7.483 13.7981 6.92503 13.7981C6.36706 13.7981 5.91473 14.2504 5.91473 14.8084C5.91473 15.3664 6.36706 15.8187 6.92503 15.8187Z" stroke="#57565C" stroke-width="0.8" stroke-linecap="round" stroke-linejoin="round"/>
<path d="M9.41643 15.809C9.37268 15.9098 9.35959 16.0212 9.37878 16.1294C9.39797 16.2375 9.44859 16.3376 9.52432 16.4172V16.4172C9.59209 16.4796 9.64617 16.5555 9.68317 16.6399C9.72016 16.7243 9.73926 16.8155 9.73926 16.9076C9.73926 16.9998 9.72016 17.0909 9.68317 17.1753C9.64617 17.2598 9.59209 17.3356 9.52432 17.398V17.398C9.46267 17.4672 9.38711 17.5225 9.30259 17.5603C9.21807 17.5982 9.1265 17.6178 9.03389 17.6178C8.94127 17.6178 8.8497 17.5982 8.76518 17.5603C8.68066 17.5225 8.6051 17.4672 8.54345 17.398V17.398C8.46532 17.32 8.36511 17.2678 8.25635 17.2485C8.1476 17.2292 8.03554 17.2437 7.93532 17.2902C7.83785 17.3331 7.75469 17.403 7.6956 17.4916C7.63652 17.5803 7.60399 17.6839 7.60182 17.7904V17.8492C7.61333 17.9443 7.60453 18.0407 7.57602 18.1321C7.54751 18.2235 7.49994 18.3078 7.43643 18.3795C7.37293 18.4511 7.29495 18.5085 7.20764 18.5478C7.12032 18.5871 7.02567 18.6074 6.92993 18.6074C6.83418 18.6074 6.73953 18.5871 6.65222 18.5478C6.5649 18.5085 6.48692 18.4511 6.42342 18.3795C6.35991 18.3078 6.31234 18.2235 6.28383 18.1321C6.25532 18.0407 6.24653 17.9443 6.25803 17.8492V17.8492C6.25667 17.7374 6.22119 17.6286 6.15634 17.5375C6.09148 17.4463 6.00034 17.3771 5.89511 17.3392C5.79343 17.2967 5.68145 17.2852 5.57325 17.3061C5.46505 17.3271 5.36545 17.3795 5.28697 17.4569V17.4569C5.22451 17.5247 5.14868 17.5788 5.06427 17.6157C4.97986 17.6527 4.8887 17.6718 4.79654 17.6718C4.70438 17.6718 4.61321 17.6527 4.5288 17.6157C4.44439 17.5788 4.36856 17.5247 4.3061 17.4569C4.23834 17.3944 4.18425 17.3186 4.14726 17.2342C4.11026 17.1498 4.09116 17.0586 4.09116 16.9665C4.09116 16.8743 4.11026 16.7831 4.14726 16.6987C4.18425 16.6143 4.23834 16.5385 4.3061 16.476V16.476C4.38418 16.3979 4.4364 16.2977 4.45569 16.1889C4.47499 16.0802 4.46043 15.9681 4.414 15.8679C4.38757 15.7642 4.33194 15.6702 4.25369 15.5972C4.17545 15.5242 4.07789 15.4751 3.97261 15.4559H3.91376C3.73686 15.4559 3.56721 15.3857 3.44212 15.2606C3.31704 15.1355 3.24677 14.9658 3.24677 14.7889C3.24677 14.612 3.31704 14.4424 3.44212 14.3173C3.56721 14.1922 3.73686 14.1219 3.91376 14.1219C4.02528 14.1192 4.13344 14.0832 4.22433 14.0186C4.31523 13.9539 4.3847 13.8635 4.42381 13.759C4.46903 13.6578 4.48199 13.5452 4.46093 13.4364C4.43987 13.3276 4.38581 13.2279 4.3061 13.1509C4.23962 13.0877 4.18669 13.0116 4.15053 12.9273C4.11436 12.843 4.09571 12.7522 4.09571 12.6605C4.09571 12.5687 4.11436 12.4779 4.15053 12.3936C4.18669 12.3093 4.23962 12.2332 4.3061 12.17V12.17C4.36856 12.1023 4.44439 12.0482 4.5288 12.0112C4.61321 11.9742 4.70438 11.9551 4.79654 11.9551C4.8887 11.9551 4.97986 11.9742 5.06427 12.0112C5.14868 12.0482 5.22451 12.1023 5.28697 12.17C5.36806 12.2466 5.46986 12.2976 5.57973 12.3168C5.6896 12.336 5.80268 12.3225 5.90492 12.2779V12.2779C6.00465 12.2353 6.08954 12.1641 6.14889 12.0734C6.20823 11.9826 6.23938 11.8763 6.23841 11.7679V11.7679C6.23841 11.5884 6.30972 11.4162 6.43664 11.2893C6.56357 11.1624 6.73571 11.0911 6.91521 11.0911C7.00363 11.0911 7.09118 11.1086 7.17274 11.1428C7.25431 11.1769 7.32828 11.2269 7.39035 11.2899C7.45241 11.3529 7.50134 11.4275 7.53427 11.5096C7.56721 11.5917 7.5835 11.6795 7.5822 11.7679C7.57679 11.8839 7.60767 11.9988 7.67055 12.0965C7.73342 12.1942 7.82518 12.2699 7.93305 12.313C8.04092 12.3562 8.15956 12.3646 8.27247 12.3372C8.38538 12.3099 8.48695 12.248 8.56307 12.1602V12.1602C8.62472 12.0911 8.70028 12.0358 8.7848 11.9979C8.86932 11.9601 8.96089 11.9405 9.0535 11.9405C9.14612 11.9405 9.23769 11.9601 9.32221 11.9979C9.40673 12.0358 9.48229 12.0911 9.54394 12.1602V12.1602C9.60919 12.2241 9.66102 12.3004 9.69641 12.3847C9.73179 12.4689 9.75002 12.5593 9.75002 12.6506C9.75002 12.742 9.73179 12.8324 9.69641 12.9166C9.66102 13.0008 9.60919 13.0771 9.54394 13.1411V13.1411C9.4682 13.2206 9.41758 13.3207 9.39839 13.4289C9.37921 13.537 9.3923 13.6485 9.43604 13.7492V13.7492C9.47969 13.8482 9.55111 13.9324 9.64164 13.9916C9.73217 14.0508 9.83793 14.0824 9.94609 14.0827H10.0049C10.1692 14.1026 10.3204 14.1819 10.4301 14.3057C10.5398 14.4295 10.6004 14.5892 10.6004 14.7546C10.6004 14.92 10.5398 15.0797 10.4301 15.2035C10.3204 15.3273 10.1692 15.4066 10.0049 15.4265V15.4265C9.87763 15.4116 9.74909 15.4416 9.64161 15.5115C9.53413 15.5814 9.45447 15.6866 9.41643 15.809V15.809Z" stroke="#57565C" stroke-width="0.8" stroke-linecap="round" stroke-linejoin="round"/>
</g>
<defs>
<clipPath id="clip0_7073_578">
<rect width="14" height="18.8388" fill="white"/>
</clipPath>
</defs>
</svg>
